<svg width="32" height="23" viewBox="0 0 32 23" fill="none" xmlns="http://www.w3.org/2000/svg">
<path d="M27.5115 0.00631165H21.8498H20.2403C20.2403 0.00631165 17.4001 0.00631105 17.8419 0.00631093L15.1278 0.00631165L12.6031 0L10.6844 0.00631165H5.01642C2.68738 0.00631165 0.800171 1.89984 0.800171 4.22256V18.7838C0.800171 21.1128 2.69369 23 5.01642 23H27.5052C29.8342 23 31.7214 21.1065 31.7214 18.7838V4.22256C31.7277 1.89984 29.8342 0.00631165 27.5115 0.00631165ZM29.1525 18.7838C29.1525 19.6863 28.4141 20.4248 27.5115 20.4248H5.01642C4.11384 20.4248 3.37536 19.6863 3.37536 18.7838V4.22256C3.37536 3.31998 4.11384 2.5815 5.01642 2.5815H27.5052C28.4077 2.5815 29.1462 3.31998 29.1462 4.22256V18.7838H29.1525Z" fill="black"/>
<path d="M16.2639 4.46237C12.3822 4.46237 9.22003 7.62456 9.22003 11.5063C9.22003 15.3943 12.3822 18.5502 16.2639 18.5502C20.1457 18.5502 23.3078 15.388 23.3078 11.5063C23.3078 7.61824 20.1457 4.46237 16.2639 4.46237ZM16.2639 15.975C13.8024 15.975 11.7952 13.9679 11.7952 11.5063C11.7952 9.0447 13.8024 7.03756 16.2639 7.03756C18.7255 7.03756 20.7327 9.0447 20.7327 11.5063C20.7327 13.9679 18.7255 15.975 16.2639 15.975Z" fill="black"/>
</svg>
