<svg width="26" height="23" viewBox="0 0 26 23" fill="none" xmlns="http://www.w3.org/2000/svg">
<path d="M22.4388 1.44355C21.2029 0.485743 19.8393 0 18.3855 0C16.5513 0 14.57 0.795893 12.6215 2.30935C10.6729 0.795893 8.69162 0 6.85739 0C5.40367 0 4.03998 0.485743 2.80417 1.44355C0.996041 2.84513 0.0938171 4.61379 0.122105 6.70033C0.219388 13.8452 11.632 22.276 12.1177 22.6314L12.6215 23L13.1252 22.6314C13.6111 22.276 25.0236 13.8452 25.1208 6.70033C25.1491 4.61379 24.2469 2.84513 22.4388 1.44355ZM17.8109 16.2128C15.6981 18.3732 13.566 20.0927 12.6215 20.8251C11.6769 20.0927 9.54486 18.3733 7.43201 16.2128C3.81219 12.5115 1.8809 9.21333 1.84686 6.67507C1.8264 5.15378 2.48173 3.89868 3.85013 2.838C4.77846 2.11833 5.79027 1.75347 6.85739 1.75347C8.87699 1.75347 10.806 3.03195 12.0685 4.10444L12.6215 4.57416L13.1745 4.10444C14.4369 3.03195 16.3659 1.75347 18.3855 1.75347C19.4527 1.75347 20.4645 2.11833 21.3928 2.838C22.7612 3.89868 23.4165 5.15378 23.3961 6.67507C23.362 9.21344 21.4306 12.5115 17.8109 16.2128Z" fill="black"/>
</svg>
