<svg width="25" height="23" viewBox="0 0 25 23" fill="none" xmlns="http://www.w3.org/2000/svg">
<path d="M22.3173 1.44355C21.0815 0.485743 19.7178 0 18.2641 0C16.4298 0 14.4485 0.795893 12.5 2.30935C10.5515 0.795893 8.57016 0 6.73593 0C5.28221 0 3.91852 0.485743 2.68271 1.44355C0.874581 2.84513 -0.0276429 4.61379 0.00064506 6.70033C0.0979279 13.8452 11.5105 22.276 11.9962 22.6314L12.5 23L13.0038 22.6314C13.4896 22.276 24.9022 13.8452 24.9994 6.70033C25.0276 4.61379 24.1254 2.84513 22.3173 1.44355ZM17.6895 16.2128C15.5766 18.3732 13.4445 20.0927 12.5 20.8251C11.5555 20.0927 9.4234 18.3733 7.31055 16.2128C3.69073 12.5115 1.75944 9.21333 1.7254 6.67507C1.70494 5.15378 2.36027 3.89868 3.72867 2.838C4.657 2.11833 5.66881 1.75347 6.73593 1.75347C8.75553 1.75347 10.6845 3.03195 11.947 4.10444L12.5 4.57416L13.053 4.10444C14.3155 3.03195 16.2445 1.75347 18.2641 1.75347C19.3312 1.75347 20.343 2.11833 21.2713 2.838C22.6397 3.89868 23.2951 5.15378 23.2746 6.67507C23.2406 9.21344 21.3092 12.5115 17.6895 16.2128Z" fill="#D1D1D1"/>
</svg>
