<svg width="22" height="23" viewBox="0 0 22 23" fill="none" xmlns="http://www.w3.org/2000/svg">
<path d="M18.207 6.83549L21.8791 10.3181C22.0323 10.4638 22.0415 10.7091 21.8988 10.866C21.8245 10.9481 21.7232 10.9896 21.6212 10.9896C21.5286 10.9896 21.4357 10.9555 21.3629 10.8861L19.7246 9.33211V10.6021V23H13.6556V13.6772C13.6556 13.2626 13.3267 12.9267 12.9208 12.9267H9.0799C8.67404 12.9267 8.34517 13.2626 8.34517 13.6772V23H2.27614V10.6021V9.33211L0.637884 10.8861C0.483882 11.0314 0.243776 11.0225 0.101534 10.866C-0.0410886 10.7091 -0.0319851 10.4638 0.121258 10.3181L11 0L18.207 6.83549Z" fill="black"/>
</svg>
