<svg width="24" height="23" viewBox="0 0 24 23" fill="none" xmlns="http://www.w3.org/2000/svg">
<path d="M23.1103 21.3526L16.5113 14.7488C17.8122 13.1886 18.5947 11.1948 18.5947 9.01712C18.5947 4.04898 14.5174 0.00942993 9.50217 0.00942993C4.4869 0.00942993 0.400208 4.0537 0.400208 9.02183C0.400208 13.99 4.47747 18.0295 9.49274 18.0295C11.6233 18.0295 13.5841 17.2989 15.1396 16.0781L21.7622 22.7007C22.1487 23.0872 22.7238 23.0872 23.1103 22.7007C23.4968 22.3142 23.4968 21.7391 23.1103 21.3526ZM2.33278 9.02183C2.33278 5.11897 5.54746 1.94672 9.49274 1.94672C13.438 1.94672 16.6527 5.11897 16.6527 9.02183C16.6527 12.9247 13.438 16.0969 9.49274 16.0969C5.54746 16.0969 2.33278 12.92 2.33278 9.02183Z" fill="black"/>
</svg>
