<svg width="16" height="16" viewBox="0 0 16 16" fill="none" xmlns="http://www.w3.org/2000/svg">
<path d="M15.6454 8.93355L15.3446 8.52156C15.0961 8.1815 15.0928 7.72046 15.3348 7.37386L15.629 6.95859C15.9691 6.47466 15.8122 5.80435 15.289 5.52315L14.841 5.28119C14.4683 5.08173 14.2655 4.66646 14.3342 4.2512L14.4192 3.74765C14.5173 3.16563 14.0824 2.62611 13.4906 2.60322L12.9805 2.58033C12.5587 2.56399 12.1958 2.27624 12.078 1.87079L11.9374 1.38032C11.774 0.811374 11.1494 0.517092 10.6034 0.752517L10.1358 0.955245C9.74668 1.122 9.29872 1.02391 9.01425 0.70674L8.67419 0.327443C8.27854 -0.113979 7.58861 -0.10744 7.19951 0.337253L6.86599 0.723089C6.58806 1.04026 6.14009 1.14816 5.75099 0.987943L5.28014 0.795025C4.73408 0.569409 4.11282 0.8735 3.95587 1.44571L3.82181 1.93618C3.71391 2.34818 3.3575 2.63919 2.93569 2.66208L2.42561 2.69151C1.83377 2.72421 1.4087 3.27026 1.5166 3.84902L1.60816 4.34929C1.68336 4.76456 1.48717 5.18309 1.11769 5.38582L0.672994 5.63433C0.156366 5.92207 0.00595583 6.59565 0.355824 7.07304L0.656645 7.48503C0.90515 7.82509 0.90842 8.28613 0.666455 8.63273L0.372173 9.04799C0.0321142 9.53192 0.189064 10.2022 0.712232 10.4834L1.16019 10.7254C1.53295 10.9249 1.73568 11.3401 1.66701 11.7554L1.57873 12.2557C1.48063 12.8377 1.91552 13.3772 2.50735 13.4001L3.01744 13.423C3.43924 13.4393 3.80219 13.7271 3.9199 14.1325L4.0605 14.623C4.22399 15.1919 4.84852 15.4862 5.39458 15.2508L5.86216 15.0481C6.25127 14.8813 6.69923 14.9794 6.9837 15.2933L7.32376 15.6726C7.71941 16.114 8.40933 16.1075 8.79844 15.6628L9.13196 15.277C9.40989 14.9598 9.85785 14.8519 10.247 15.0121L10.7178 15.205C11.2639 15.4306 11.8851 15.1265 12.0421 14.5543L12.1761 14.0639C12.2873 13.6584 12.647 13.3674 13.0688 13.3412L13.5789 13.3118C14.1707 13.2791 14.5958 12.7331 14.4879 12.1543L14.3963 11.654C14.3211 11.2388 14.5173 10.8202 14.8868 10.6175L15.3315 10.369C15.8449 10.0878 15.992 9.41094 15.6454 8.93355Z" fill="#33A2E0"/>
<path d="M7.34011 8.14233L6.88234 7.68129C6.61095 7.40663 6.16625 7.40663 5.89159 7.67802C5.61693 7.94941 5.61693 8.3941 5.88832 8.66877L6.34609 9.12981L6.85618 9.63989C7.12103 9.90802 7.55265 9.90802 7.82077 9.64316L8.33086 9.13635L10.1096 7.36739C10.3843 7.096 10.3843 6.6513 10.1129 6.37664C9.84151 6.10198 9.39682 6.10198 9.12215 6.37337L7.34011 8.14233Z" fill="white"/>
</svg>
