<svg width="24" height="23" viewBox="0 0 24 23" fill="none" xmlns="http://www.w3.org/2000/svg">
<path d="M12.019 12.2838C15.3932 12.2838 18.1855 9.59477 18.1855 6.16894C18.1855 2.74311 15.3932 0.00244141 12.019 0.00244141C8.64483 0.00244141 5.85254 2.69148 5.85254 6.11732C5.85254 9.54315 8.64483 12.2838 12.019 12.2838ZM12.019 1.91246C14.3655 1.91246 16.2755 3.82248 16.2755 6.12201C16.2755 8.42154 14.3655 10.3269 12.019 10.3269C9.67258 10.3269 7.76256 8.41685 7.76256 6.11732C7.76256 3.81779 9.67258 1.91246 12.019 1.91246Z" fill="black"/>
<path d="M16.177 12.8703C15.7875 12.7717 15.3933 12.8703 15.1493 13.1659L12.0191 16.7372L8.8889 13.1659C8.64487 12.8703 8.20373 12.7764 7.86115 12.8703C3.40757 14.3392 0.521423 17.9574 0.521423 22.0168C0.521423 22.5565 0.962558 22.9976 1.50224 22.9976H22.5406C23.0803 22.9976 23.5214 22.5565 23.5214 22.0168C23.5167 17.9574 20.6306 14.3392 16.177 12.8703ZM2.5253 21.0876C2.91951 18.3985 4.87645 16.099 7.90808 14.9258L11.3339 18.8397C11.6765 19.2808 12.4086 19.2808 12.7512 18.8397L16.177 14.9258C19.1617 16.099 21.1703 18.4455 21.5598 21.0876H2.5253Z" fill="black"/>
</svg>
